<svg width="355" height="402" viewBox="0 0 355 402" xmlns="http://www.w3.org/2000/svg" xmlns:xlink="http://www.w3.org/1999/xlink"><title>Group 3</title><desc>Created with Sketch.</desc><defs><rect id="a" width="231.874" height="295.92" rx="2.174"/><mask id="l" x="-4.054" y="-4.054" width="239.982" height="304.028"><path fill="#fff" d="M-4.054-4.054h239.982v304.028H-4.054z"/><use xlink:href="#a"/></mask><rect id="b" x="23.748" y="45.371" width="69.154" height="27.861" rx="1.304"/><mask id="m" x="0" y="0" width="69.154" height="27.861"><use xlink:href="#b"/></mask><rect id="c" width="231.874" height="295.92" rx="2.174"/><mask id="n" x="-4.054" y="-4.054" width="239.982" height="304.028"><path fill="#fff" d="M-4.054-4.054h239.982v304.028H-4.054z"/><use xlink:href="#c"/></mask><rect id="d" x="23.748" y="45.371" width="69.154" height="27.861" rx="1.304"/><mask id="o" x="0" y="0" width="69.154" height="27.861"><use xlink:href="#d"/></mask><rect id="e" width="231.874" height="295.92" rx="2.174"/><mask id="p" x="-4.054" y="-4.054" width="239.982" height="304.028"><path fill="#fff" d="M-4.054-4.054h239.982v304.028H-4.054z"/><use xlink:href="#e"/></mask><rect id="f" x="23.748" y="45.371" width="69.154" height="27.861" rx="1.304"/><mask id="q" x="0" y="0" width="69.154" height="27.861"><use xlink:href="#f"/></mask><path d="M265.436 43.2h4.644c1.966 0 3.57-1.6 3.57-3.572V3.572c0-1.983-1.6-3.572-3.57-3.572H120.46c-1.966 0-3.568 1.6-3.568 3.572v36.056c0 1.983 1.598 3.572 3.57 3.572h4.643c-.07-.274-.105-.56-.105-.856V11.656c0-1.964 1.603-3.556 3.562-3.556H261.98c1.966 0 3.56 1.6 3.56 3.556v30.688c0 .295-.036.582-.104.856z" id="g"/><mask id="r" x="-4.054" y="-4.054" width="164.865" height="51.308"><path fill="#fff" d="M112.838-4.054h164.865v51.308H112.838z"/><use xlink:href="#g"/></mask><rect id="h" x="25" y="27.727" width="336.591" height="214.041" rx="5.405"/><mask id="s" x="0" y="0" width="336.591" height="214.041"><use xlink:href="#h"/></mask><rect id="i" x="25" y="27.727" width="336.591" height="100.599" rx="5.405"/><mask id="t" x="0" y="0" width="336.591" height="100.599"><use xlink:href="#i"/></mask><ellipse id="j" cx="42.521" cy="42.452" rx="42.521" ry="42.452"/><mask id="u" x="0" y="0" width="85.041" height="84.903"><use xlink:href="#j"/></mask><rect id="k" x="162.924" y="118.723" width="61.458" height="24.202" rx="1.426"/><mask id="v" x="-4.054" y="-4.054" width="69.566" height="32.31"><path fill="#fff" d="M158.87 114.67h69.566v32.31H158.87z"/><use xlink:href="#k"/></mask></defs><g fill="none"><g><g id="Group" transform="translate(72.602 30.061)"><g id="Path-27" transform="translate(1.209)"><mask><use xlink:href="#a"/></mask><g id="Mask"><use fill="#F6F6F6" xlink:href="#a"/><use stroke="#516B35" mask="url(#l)" stroke-width="8.108" stroke-linejoin="round" xlink:href="#a"/></g></g><path d="M106.928 47.925h105.778" id="Line" stroke="#516B35" stroke-width="4.054" stroke-linecap="square"/><path d="M106.735 72.225h105.777" id="Line-Copy" stroke="#516B35" stroke-width="4.054" stroke-linecap="square"/><path d="M22.88 99.225h188.392" id="Line-Copy-3" stroke="#516B35" stroke-width="4.054" stroke-linecap="square"/><path d="M22.073 126.225h188.39" id="Line-Copy-2" stroke="#516B35" stroke-width="4.054" stroke-linecap="square"/><path d="M24.315 150.525h188.39M24.315 180.225h188.39M24.315 204.525h188.39M24.315 231.525h188.39M24.315 258.525h188.39" id="Line" stroke="#516B35" stroke-width="4.054" stroke-linecap="square"/><use id="Rectangle-5" stroke="#516B35" mask="url(#m)" stroke-width="8.108" stroke-linejoin="round" fill="#9CCC65" xlink:href="#b"/></g><g id="Group" transform="translate(103.583 17.534)"><g id="Path-27" transform="translate(1.209)"><mask><use xlink:href="#c"/></mask><g id="Mask"><use fill="#F9F9F9" xlink:href="#c"/><use stroke="#516B35" mask="url(#n)" stroke-width="8.108" stroke-linejoin="round" xlink:href="#c"/></g></g><path d="M106.928 47.925h105.778" id="Line" stroke="#516B35" stroke-width="4.054" stroke-linecap="square"/><path d="M106.735 72.225h105.777" id="Line-Copy" stroke="#516B35" stroke-width="4.054" stroke-linecap="square"/><path d="M22.88 99.225h188.392" id="Line-Copy-3" stroke="#516B35" stroke-width="4.054" stroke-linecap="square"/><path d="M22.073 126.225h188.39" id="Line-Copy-2" stroke="#516B35" stroke-width="4.054" stroke-linecap="square"/><path d="M24.315 150.525h188.39M24.315 180.225h188.39M24.315 204.525h188.39M24.315 231.525h188.39M24.315 258.525h188.39" id="Line" stroke="#516B35" stroke-width="4.054" stroke-linecap="square"/><use id="Rectangle-5" stroke="#516B35" mask="url(#o)" stroke-width="8.108" stroke-linejoin="round" fill="#9CCC65" xlink:href="#d"/></g><g id="Group" transform="translate(135.389 5.007)"><g transform="translate(1.209)"><mask><use xlink:href="#e"/></mask><g><use fill="#fff" xlink:href="#e"/><use stroke="#516B35" mask="url(#p)" stroke-width="8.108" stroke-linejoin="round" xlink:href="#e"/></g></g><path d="M106.928 47.925h105.778" id="Line" stroke="#516B35" stroke-width="4.054" stroke-linecap="square"/><path d="M106.735 72.225h105.777" stroke="#516B35" stroke-width="4.054" stroke-linecap="square"/><path d="M22.88 99.225h188.392" stroke="#516B35" stroke-width="4.054" stroke-linecap="square"/><path d="M22.073 126.225h188.39" stroke="#516B35" stroke-width="4.054" stroke-linecap="square"/><path d="M24.315 150.525h188.39M24.315 180.225h188.39M24.315 204.525h188.39M24.315 231.525h188.39M24.315 258.525h188.39" stroke="#516B35" stroke-width="4.054" stroke-linecap="square"/><use stroke="#516B35" mask="url(#q)" stroke-width="8.108" stroke-linejoin="round" fill="#9CCC65" xlink:href="#f"/></g></g><g transform="translate(0 145.4)"><g><use fill="#9CCC65" xlink:href="#g"/><use stroke="#516B35" mask="url(#r)" stroke-width="8.108" xlink:href="#g"/></g><use id="Rectangle-7" stroke="#516B35" mask="url(#s)" stroke-width="8.108" fill="#fff" xlink:href="#h"/><use stroke="#516B35" mask="url(#t)" stroke-width="8.108" fill="#F6F6F6" xlink:href="#i"/><g transform="translate(.418 171.697)" stroke="#516B35"><use mask="url(#u)" fill="#9CCC65" xlink:href="#j"/><path d="M26.912 48.417l12.342 10.988 19.29-33.612"/></g><g><use fill="#9CCC65" xlink:href="#k"/><use stroke="#516B35" mask="url(#v)" stroke-width="8.108" xlink:href="#k"/></g></g></g></svg>