<svg width="372" height="393" viewBox="0 0 372 393" xmlns="http://www.w3.org/2000/svg" xmlns:xlink="http://www.w3.org/1999/xlink"><title>find talent</title><desc>Created with Sketch.</desc><defs><path id="a" d="M0 0h398v398H0z"/><path d="M0 21.527V388.02c0 1.836 1.476 3.324 3.325 3.324h294.033c1.837 0 3.326-1.475 3.326-3.324V3.324c0-1.836-1.477-3.324-3.326-3.324H27.604h24.28L0 39.73V21.527z" id="c"/><ellipse id="d" cx="65.727" cy="63.922" rx="64.951" ry="65.007"/><path d="M26.12 140.628l7.827 3.484c-.928 2.663.334 5.642 2.957 6.81l110.705 49.29c2.77 1.232 6.013-.01 7.242-2.772l7.135-16.025c1.23-2.764-.023-6.007-2.787-7.237l-110.705-49.29c-2.77-1.233-6.013.01-7.243 2.772l-.254.57-5.33-2.373c5.163-10.41 8.066-22.14 8.066-34.55 0-42.994-34.85-77.847-77.843-77.847-42.99 0-77.843 34.853-77.843 77.847 0 42.993 34.852 77.846 77.844 77.846 24.275 0 45.954-11.11 60.23-28.525zm-59.883 16.71c35.54 0 64.35-29.097 64.35-64.99 0-35.89-28.81-64.986-64.35-64.986-35.54 0-64.35 29.096-64.35 64.987 0 35.89 28.81 64.987 64.35 64.987z" id="e"/></defs><g transform="translate(-652 -3119) translate(650 3117)" fill="none"><mask id="b"><use xlink:href="#a"/></mask><use id="Mask" xlink:href="#a"/><g transform="translate(55.72 2.662)" mask="url(#b)"><g transform="translate(38.714)"><mask><use xlink:href="#c"/></mask><use id="Mask" stroke="#516B35" stroke-width="3.98" stroke-linejoin="round" fill="#fff" xlink:href="#c"/></g><path d="M175.806 60.363h137.167" id="Line" stroke="#516B35" stroke-width="3.98" stroke-linecap="square"/><path d="M175.555 94.857h137.167" stroke="#516B35" stroke-width="3.98" stroke-linecap="square"/><path d="M175.555 132.003h137.167" stroke="#516B35" stroke-width="3.98" stroke-linecap="square"/><path d="M68.678 200.99h244.295" id="Line" stroke="#516B35" stroke-width="3.98" stroke-linecap="square"/><path d="M65.77 166.497h244.295" stroke="#516B35" stroke-width="3.98" stroke-linecap="square"/><path d="M68.678 272.63h244.295M68.678 238.137h244.295M68.678 307.123h244.295M68.678 344.27h244.295" stroke="#516B35" stroke-width="3.98" stroke-linecap="square"/><path d="M90.905 0l.665 39.063-52.19.667L90.904 0z" stroke="#516B35" stroke-width="3.98" stroke-linejoin="round" fill="#9CCC65"/><rect stroke="#516B35" stroke-width="3.98" stroke-linejoin="round" fill="#9CCC65" x="67.942" y="60.002" width="89.676" height="90.003" rx="1.99"/><g transform="translate(0 90.213)"><mask><use xlink:href="#d"/></mask><use id="Mask" fill="#E4F5F4" opacity=".59" xlink:href="#d"/><mask><use xlink:href="#e"/></mask><use stroke="#516B35" stroke-width="4.146" fill="#9CCC65" transform="matrix(-.839 .545 .545 .839 -11.969 3.492)" xlink:href="#e"/></g></g></g></svg>