<svg width="110" height="30" viewBox="0 0 110 30" xmlns="http://www.w3.org/2000/svg" xmlns:xlink="http://www.w3.org/1999/xlink"><title>Page 1</title><desc>Created with Sketch.</desc><defs><path id="a" d="M0 .274h109.632V30H0"/><path id="c" d="M0 .274h109.632V30H0"/></defs><g fill="none"><g transform="translate(-627 -2862) translate(627 2862)"><mask id="b"><use xlink:href="#a"/></mask><path d="M1.93 12.217c-.803-.102-1.093.456-1.324 1.062C-.986 17.455.6 22.875 4.86 24.582c.997 1.393 1.796 2.927 3.33 3.89 3.523 2.208 6.97 1.898 10.416-.14 3.586.372 6.235-1.32 8.094-4.144 1.085-1.65 1.907-3.62.807-5.716.923.046 1.18-.696 1.408-1.328 1.472-4.064.663-9.24-4.188-11.522-.175-.254-.365-.5-.524-.764C22.19 1.493 19.257-.002 15.34.316c-1.634.133-2.948.965-4.36 1.612-3.85-.552-7.91 2.435-8.954 6.103-.345 1.215-1.06 2.492-.092 3.768.038.14.036.28-.004.42" fill="#FEFEFE" mask="url(#b)"/></g><path d="M62.673 13.398c1.007 1.502 1.68 2.552 2.402 3.566.927 1.3 1.515 1.28 2.497.013.703-.908 1.108-2.06 2.28-2.918 0 2.214.042 4.192-.015 6.17-.03 1.04.374 1.405 1.38 1.395.957-.01.943-.595.942-1.265-.008-3.092-.047-6.185.018-9.276.023-1.094-.418-1.304-1.382-1.298-.858.006-1.263.46-1.663 1.09-.884 1.39-1.805 2.757-2.8 4.27-1.085-1.685-2.085-3.178-3.023-4.71-.552-.9-1.386-.674-2.11-.55-.748.13-.484.876-.487 1.377-.02 3.013-.014 6.026-.007 9.04 0 .532-.12 1.154.67 1.282.858.14 1.332-.097 1.31-1.103-.045-2.176-.013-4.352-.013-7.084" fill="#FEFEFE"/><path d="M100.776 15.59c0 1.586.022 3.173-.01 4.758-.017.907.358 1.29 1.265 1.278 2.133-.027 4.266-.026 6.398 0 .734.01 1.202-.114 1.203-1.01.003-.87-.413-1.06-1.173-1.043-1.5.034-3-.012-4.5.012-1.36.022-.9-.992-.97-1.68-.073-.744-.08-1.42 1.036-1.364 1.497.075 3 .007 4.5.02.644.007 1.03-.157 1.035-.92.004-.71-.26-1.006-.958-1-1.5.015-3.004-.064-4.5.025-1.058.063-1.185-.476-1.122-1.29.057-.726-.305-1.66 1.052-1.595 1.576.074 3.158.004 4.737.02.588.005.874-.224.848-.83-.024-.548.085-1.158-.768-1.156-2.37.005-4.738.007-7.107-.005-.708-.005-.976.337-.968 1.02.017 1.587.005 3.173.004 4.76" fill="#FEFEFE"/><path d="M76.966 15.443c0 1.74.003 3.482 0 5.222-.002.734.45.944 1.074.942.586-.002 1.104-.096 1.16-.858.06-.856-.344-1.894.197-2.526.648-.757 1.795-.126 2.692-.378.378-.106.765-.188 1.14-.31 2.1-.683 2.953-2.048 2.735-4.356-.17-1.8-1.434-3.092-3.438-3.28-1.484-.14-2.99-.05-4.484-.094-.808-.024-1.113.32-1.09 1.128.038 1.502.01 3.006.013 4.51" fill="#FEFEFE"/><path d="M44.856 21.723c.158 0 .316.008.473 0 2.093-.122 3.448-1.227 3.666-2.987.252-2.03-.43-2.986-2.715-3.768-.814-.278-1.644-.512-2.465-.774-.65-.21-1.147-.573-1.092-1.34.066-.924.78-1.102 1.508-1.19.98-.114 1.89.167 2.68.718.662.462.943.136 1.296-.383.367-.54.49-.985-.156-1.374-1.87-1.124-3.83-1.43-5.832-.445-1.236.61-1.814 1.704-1.76 3.103.05 1.328.74 2.23 1.926 2.727.648.273 1.35.416 2.02.64.593.198 1.22.35 1.755.658 1.05.605 1.004 1.59-.038 2.21-.66.394-1.368.374-2.06.197-.76-.194-1.502-.483-2.134-.98-.768-.6-1.132.047-1.52.512-.534.64.003.98.45 1.272 1.212.79 2.53 1.258 3.998 1.203" fill="#FEFEFE"/><path d="M89.384 15.577c0 1.58.01 3.158-.003 4.737-.005.7.12 1.296.975 1.302 2.2.017 4.4.005 6.602.008.805 0 .803-.553.815-1.135.012-.648-.16-1.05-.918-1.03-1.257.032-2.52-.063-3.772.026-1.195.085-1.455-.435-1.424-1.522.066-2.367-.004-4.737.03-7.105.013-.844-.35-1.083-1.127-1.07-.74.012-1.2.18-1.183 1.05.03 1.58.01 3.158.007 4.737" fill="#FEFEFE"/><path d="M53.35 15.594c0 1.655.004 3.31 0 4.965 0 .818.46 1.057 1.204 1.08.828.03 1.102-.348 1.097-1.128-.016-3.23-.025-6.46.004-9.69.008-.874-.422-1.033-1.16-1.033-.765 0-1.17.236-1.154 1.077.03 1.575.01 3.152.01 4.727" fill="#FEFEFE"/><g transform="translate(-627 -2862) translate(627 2862)"><mask id="d"><use xlink:href="#c"/></mask><path d="M22.784 6.152c.055-.81-.21-1.482-.854-1.99-2.224-2.25-4.78-3.14-7.85-1.94-.928-.088-1.48.59-2.13 1.06-1.344.92-2.582 1.915-2.747 3.71-.784.21-.523.884-.615 1.4-.617.395-.584 1.125-.688 1.683-.47 2.54-1.368 4.954-1.986 7.447L5.74 19.5c-.334 1.693-.16 3.275 1.007 4.64.035.78.218 1.49.946 1.927 2.283 2.306 4.896 3.21 8.03 1.91.772-.064 1.445-.316 1.894-1 1.33-.763 2.223-1.908 2.86-3.28.723-.482.515-1.37.87-2.012.782-2.993 1.562-5.986 2.343-8.98l.162-1.94c.6-1.762.1-3.265-1.068-4.613M10.98 1.928c1.412-.647 2.726-1.48 4.36-1.612 3.917-.318 6.85 1.177 8.863 4.544.16.265.35.51.524.764.048.837.653 1.548.54 2.42l.014 4.57-.503 1.93c-.72 1.713-1.147 3.51-1.52 5.325-.848.794-.185 1.853-.474 2.746-.792 1.227-1.516 2.486-1.882 3.92-.837.505-1.766.893-2.294 1.797-3.445 2.04-6.893 2.35-10.416.14-1.534-.963-2.333-2.497-3.33-3.89.13-.857-.528-1.534-.538-2.36-.01-1.536-.017-3.072-.026-4.61.258-.605.624-1.182.518-1.89.71-1.716 1.166-3.505 1.526-5.322.76-.85.11-2.088.808-2.955C7.453 6.03 8.563 5.022 9.03 3.69c.554-.696 1.545-.902 1.95-1.762" fill="#3D8393" mask="url(#d)"/></g><path d="M62.673 13.398c0 2.732-.032 4.908.014 7.084.02 1.006-.453 1.243-1.312 1.103-.788-.128-.668-.75-.67-1.283-.006-3.013-.013-6.026.008-9.04.003-.5-.26-1.247.487-1.375.724-.125 1.558-.35 2.11.55.938 1.53 1.938 3.024 3.024 4.708.994-1.512 1.915-2.878 2.8-4.268.4-.63.804-1.085 1.662-1.09.964-.007 1.405.203 1.382 1.297-.065 3.09-.026 6.184-.02 9.276.002.67.016 1.255-.94 1.265-1.007.01-1.412-.356-1.38-1.396.056-1.978.015-3.956.015-6.17-1.173.857-1.578 2.01-2.28 2.917-.983 1.268-1.57 1.288-2.498-.013-.723-1.014-1.395-2.064-2.402-3.566" fill="#353534"/><path d="M100.776 15.59c0-1.587.013-3.173-.004-4.76-.008-.683.26-1.025.968-1.02 2.37.01 4.738.01 7.107.004.853-.002.744.608.768 1.155.027.606-.26.835-.848.83-1.58-.016-3.162.054-4.738-.02-1.357-.064-.995.87-1.052 1.594-.063.815.064 1.354 1.123 1.29 1.495-.088 3-.01 4.5-.023.698-.006.962.29.958 1-.004.763-.39.927-1.034.92-1.5-.013-3.004.055-4.5-.02-1.118-.054-1.11.62-1.036 1.364.07.69-.39 1.703.968 1.68 1.5-.023 3.002.023 4.5-.01.76-.018 1.177.17 1.175 1.042 0 .896-.468 1.02-1.202 1.01-2.132-.026-4.265-.027-6.397 0-.906.012-1.28-.37-1.263-1.278.03-1.585.008-3.172.01-4.758" fill="#393938"/><path d="M79.2 13.766c.005 2 .005 2 1.612 2.012 2.05.017 3.16-.742 3.075-2.103-.076-1.22-1.17-1.89-3.077-1.88-1.618.005-1.618.005-1.61 1.97m-2.235 1.678c-.002-1.503.027-3.007-.014-4.51-.02-.808.285-1.15 1.092-1.127 1.496.044 3-.045 4.486.095 2.002.188 3.266 1.48 3.437 3.28.218 2.308-.635 3.673-2.736 4.356-.375.122-.762.204-1.14.31-.898.252-2.045-.38-2.693.378-.54.632-.136 1.67-.198 2.525-.056.76-.574.855-1.16.857-.624.002-1.076-.208-1.075-.942.004-1.74 0-3.48 0-5.222" fill="#383837"/><path d="M44.856 21.724c-1.468.054-2.786-.413-3.997-1.205-.45-.294-.986-.63-.45-1.273.386-.465.75-1.114 1.518-.51.632.495 1.372.784 2.135.98.69.175 1.4.195 2.06-.198 1.04-.623 1.086-1.607.036-2.21-.536-.31-1.164-.46-1.757-.66-.67-.224-1.37-.368-2.02-.64-1.185-.5-1.875-1.4-1.926-2.728-.053-1.398.525-2.493 1.76-3.1 2.004-.987 3.963-.68 5.833.445.645.388.523.832.155 1.372-.352.518-.634.844-1.295.382-.79-.55-1.7-.833-2.68-.716-.727.086-1.44.264-1.508 1.19-.055.765.444 1.13 1.093 1.337.82.263 1.65.497 2.466.776 2.286.78 2.968 1.736 2.716 3.766-.218 1.76-1.573 2.865-3.667 2.986-.158.01-.316 0-.474.002" fill="#373736"/><path d="M89.385 15.577c0-1.58.023-3.158-.008-4.736-.016-.87.444-1.038 1.185-1.05.775-.013 1.138.226 1.126 1.07-.034 2.367.036 4.737-.03 7.104-.03 1.087.23 1.607 1.424 1.522 1.25-.09 2.514.006 3.77-.027.76-.02.932.382.92 1.03-.012.58-.01 1.135-.815 1.134-2.2-.003-4.402.01-6.602-.008-.855-.006-.98-.603-.975-1.302.013-1.58.004-3.158.005-4.737" fill="#3E3E3D"/><path d="M53.35 15.594c0-1.575.02-3.152-.01-4.727-.016-.84.388-1.078 1.155-1.078.737 0 1.167.158 1.16 1.03-.03 3.23-.02 6.462-.003 9.692.003.78-.27 1.157-1.098 1.13-.745-.025-1.205-.264-1.203-1.083.003-1.656.002-3.31 0-4.966" fill="#3F3F3E"/><path d="M18.606 28.333c.528-.904 1.457-1.292 2.295-1.798 3.09-.762 4.82-2.494 5.198-5.206.01-1.075 1.133-1.757 1.006-2.88.134.017.268.025.403.024 1.1 2.096.278 4.065-.807 5.715-1.86 2.824-4.508 4.515-8.094 4.143" fill="#E57C65"/><path d="M27.507 18.474c-.135.002-.27-.006-.403-.024l.015.017c.515-.83.497-1.75.45-2.675 1.072-1.886.652-3.81-.16-5.57-.398-.863-.708-2.186-2.143-2.177.113-.873-.492-1.584-.54-2.42 4.85 2.28 5.66 7.457 4.188 11.52-.23.633-.486 1.375-1.408 1.33" fill="#7BABB5"/><path d="M10.98 1.928c-.405.86-1.396 1.066-1.95 1.76-.547-.023-1.044.09-1.572.292-2.503.958-3.56 3.083-4.453 5.363-.093.935-.725 1.632-1.07 2.455-.97-1.276-.254-2.553.09-3.767C3.07 4.365 7.13 1.377 10.982 1.93" fill="#E57D66"/><path d="M4.322 22.223c.01.825.667 1.503.54 2.36C.6 22.877-.986 17.457.606 13.28c.23-.605.52-1.163 1.323-1.06l.054.054.01 1.926c-1.238 3.3-.478 5.922 2.328 8.025" fill="#7BAAB5"/><path d="M1.935 11.798c.345-.823.977-1.52 1.07-2.455 1.562-.234 2.58-1.665 4.143-1.898-.7.867-.05 2.106-.808 2.956-.206-.22.074-1.035-.53-.68-1.047.614-2.233 1.173-2.602 2.528l-1.224.024-.054-.055c.04-.14.042-.28.005-.42" fill="#7EABB5"/><path d="M23.69 12.706c-.78 2.993-1.56 5.986-2.342 8.98-3.033.63-6.004 1.484-8.943 2.462-1.97-2.4-4.248-4.496-6.49-6.626.617-2.493 1.516-4.908 1.986-7.446.104-.56.07-1.288.688-1.684 2.934-.463 5.77-1.3 8.57-2.274 2.035 2.34 4.242 4.505 6.532 6.588" fill="#FEFEFE"/><path d="M25.268 8.045c1.434-.01 1.744 1.314 2.142 2.176.81 1.76 1.232 3.686.16 5.572-.87-.98-1.077-2.444-2.29-3.178l-.012-4.57" fill="#F6F8F9"/><path d="M4.322 22.223C1.516 20.12.756 17.5 1.995 14.198c.843 1.087.978 2.656 2.3 3.416.01 1.536.018 3.073.027 4.61" fill="#F8F9F9"/><path d="M15.722 27.978c-3.133 1.3-5.746.395-8.03-1.91.445-.8 1.024-.193 1.567-.198 1.03-.01 2.313.404 2.726-1.148l.185-.048h.192c.002.13.012.258.034.385-.214 1.11.725 1.393 1.352 1.894.588.47 1.473.376 1.974 1.024" fill="#F8F9F9"/><path d="M23.69 12.706c-2.29-2.083-4.497-4.25-6.53-6.588l.036-.99h.287c.495.56 1.122.853 1.854.94 1.206 1.855 2.895 3.242 4.515 4.696l-.162 1.942" fill="#E67F68"/><path d="M14.08 2.222c3.07-1.2 5.626-.31 7.85 1.94-.093.115-.23.347-.274.33-1.388-.512-2.715-.035-4.054.228-.867-1.27-2.468-1.494-3.522-2.498" fill="#F7F9F9"/><path d="M7.148 7.445c-1.563.233-2.58 1.664-4.143 1.898.894-2.28 1.95-4.405 4.453-5.363.53-.202 1.025-.315 1.573-.29C8.564 5.02 7.454 6.03 7.15 7.444" fill="#FCFBFB"/><path d="M12.362 24.674h-.19l-.186.048c-.607-.085-1.26-.017-1.748-.51-1.105-1.95-2.862-3.272-4.498-4.712l.174-1.978c2.243 2.13 4.522 4.225 6.49 6.626l-.042.526" fill="#E67D65"/><path d="M12.362 24.674c.014-.175.03-.35.043-.526 2.938-.978 5.91-1.833 8.943-2.463-.356.642-.148 1.53-.87 2.013-2.257-.214-4.234.792-6.29 1.45-.598-.03-1.195-.06-1.792-.088-.022-.128-.032-.257-.034-.386" fill="#7AAAB5"/><path d="M26.098 21.33c-.38 2.71-2.107 4.442-5.197 5.206.367-1.433 1.092-2.693 1.883-3.92 1.237-.087 2.038-1.304 3.315-1.287" fill="#FCFBFB"/><path d="M17.196 5.127l-.038.99c-2.8.975-5.635 1.813-8.57 2.275.092-.516-.17-1.19.615-1.398 2.133-.64 4.265-1.282 6.397-1.923l1.596.057" fill="#7CABB6"/><path d="M15.6 5.07L9.204 6.995c.165-1.797 1.403-2.794 2.746-3.71 1.173.684 2.715.612 3.65 1.787" fill="#F9F9F9"/><path d="M14.187 25.148c2.057-.658 4.035-1.664 6.29-1.45-.637 1.37-1.53 2.516-2.86 3.28-1.098-.696-2.652-.53-3.43-1.83" fill="#F8F9F9"/><path d="M23.257 19.87c.373-1.815.8-3.614 1.52-5.327 1.4.897 1.245 2.522 1.774 3.826-.924.704-1.557 1.786-2.72 2.18-.698.238-.4-.435-.573-.68" fill="#F8F9F9"/><path d="M5.74 19.5c1.636 1.44 3.393 2.762 4.498 4.713l-3.49-.074c-1.17-1.365-1.342-2.947-1.008-4.64" fill="#FBF9F9"/><path d="M23.852 10.764c-1.62-1.454-3.31-2.84-4.515-4.697l3.447.085c1.17 1.348 1.67 2.85 1.068 4.612" fill="#FCFAFA"/><path d="M3.208 12.248c.37-1.355 1.555-1.914 2.603-2.53.604-.353.324.462.53.683-.36 1.818-.817 3.608-1.526 5.324-1.222-.84-1.313-2.205-1.606-3.476" fill="#F9F9F9"/><path d="M23.257 19.87c.172.245-.125.918.573.68 1.163-.394 1.796-1.476 2.72-2.18l.57.097-.016-.017c.127 1.123-.997 1.805-1.006 2.88-1.277-.018-2.078 1.2-3.315 1.286.29-.893-.374-1.95.474-2.747" fill="#7DABB5"/><path d="M27.12 18.467l-.568-.098c-.53-1.305-.375-2.93-1.774-3.827l.503-1.93c1.213.735 1.42 2.198 2.29 3.18.047.925.065 1.845-.45 2.674" fill="#E38069"/><path d="M22.784 6.152l-3.447-.085c-.732-.085-1.36-.38-1.854-.94.082-.123.122-.258.12-.407 1.338-.264 2.665-.74 4.053-.228.045.017.18-.215.274-.33.644.508.91 1.18.854 1.99" fill="#7EADB7"/><path d="M3.208 12.248c.293 1.27.384 2.637 1.606 3.476.106.707-.26 1.284-.52 1.89-1.32-.76-1.456-2.33-2.3-3.416l-.01-1.926 1.224-.024" fill="#E27F68"/><path d="M17.602 4.72c.002.148-.037.285-.118.408h-.288L15.6 5.07c-.935-1.174-2.477-1.102-3.65-1.787.65-.472 1.202-1.15 2.13-1.06 1.054 1.003 2.655 1.227 3.522 2.497" fill="#E4816B"/><path d="M6.747 24.14l3.49.073c.49.492 1.142.424 1.75.51-.413 1.55-1.697 1.138-2.728 1.147-.544.005-1.124-.6-1.567.197-.73-.438-.912-1.146-.946-1.928" fill="#7FADB8"/><path d="M14.187 25.148c.778 1.3 2.332 1.134 3.43 1.83-.45.683-1.122.935-1.895 1-.5-.648-1.386-.553-1.975-1.024-.626-.5-1.565-.785-1.35-1.894l1.79.088" fill="#E27E68"/><path d="M79.2 13.766c-.008-1.966-.008-1.966 1.61-1.972 1.908-.01 3 .66 3.077 1.88.084 1.362-1.025 2.12-3.075 2.104-1.607-.013-1.607-.013-1.613-2.012" fill="#FCFCFC"/></g></svg>