<svg width="243" height="200" viewBox="0 0 243 200" xmlns="http://www.w3.org/2000/svg" xmlns:xlink="http://www.w3.org/1999/xlink"><title>Group 3</title><desc>Created with Sketch.</desc><defs><rect id="a" y="28.571" width="103.976" height="11.662" rx="1.749"/><mask id="A" x="0" y="0" width="103.976" height="11.662"><use xlink:href="#a"/></mask><path id="b" d="M45.207 0H58.77v30.904H45.206z"/><mask id="B" x="0" y="0" width="13.562" height="30.904"><use xlink:href="#b"/></mask><rect id="c" width="243" height="156.945" rx="1.749"/><mask id="C" x="0" y="0" width="243" height="156.945"><use xlink:href="#c"/></mask><rect id="d" y="123.367" width="243" height="33.724" rx="1.749"/><mask id="D" x="0" y="0" width="243" height="33.724"><use xlink:href="#d"/></mask><ellipse id="e" cx="121.5" cy="140.401" rx="4.136" ry="4.129"/><mask id="E" x="0" y="0" width="8.272" height="8.259"><use xlink:href="#e"/></mask><rect id="f" x="10.514" y="12.828" width="219.14" height="105.062" rx="1.224"/><mask id="F" x="0" y="0" width="219.14" height="105.062"><use xlink:href="#f"/></mask><rect id="g" x="10.396" y="12.971" width="219.14" height="15.901" rx="1.224"/><mask id="G" x="0" y="0" width="219.14" height="15.901"><use xlink:href="#g"/></mask><rect id="h" x="19.861" y="33.819" width="153.627" height="75.802" rx="1.749"/><mask id="H" x="0" y="0" width="153.627" height="75.802"><use xlink:href="#h"/></mask><rect id="i" x="17.178" y="11.258" width="31.043" height="31.045" rx="1.749"/><mask id="I" x="0" y="0" width="31.043" height="31.045"><use xlink:href="#i"/></mask><path d="M14.213 1.57c.434-.867 1.134-.872 1.57 0l14.214 28.435H0L14.213 1.57z" id="j"/><mask id="J" x="0" y="0" width="29.997" height="30.005"><use xlink:href="#j"/></mask><ellipse id="k" cx="51.57" cy="4.87" rx="3.484" ry="3.478"/><mask id="K" x="0" y="0" width="6.969" height="6.956"><use xlink:href="#k"/></mask><ellipse id="l" cx="3.484" cy="4.87" rx="3.484" ry="3.478"/><mask id="L" x="0" y="0" width="6.969" height="6.956"><use xlink:href="#l"/></mask><rect id="m" x="22.301" width="9.253" height="8.973" rx=".7"/><mask id="M" x="0" y="0" width="9.253" height="8.973"><use xlink:href="#m"/></mask><path d="M10.552.63c.176-.348.627-.63 1.02-.63h4.74l9.256 18.272c.176.347.24.93.142 1.308l-3.606 13.81H4.764L1.46 19.58c-.09-.375-.02-.96.156-1.308L10.552.63z" id="n"/><mask id="N" x="0" y="0" width="24.391" height="33.391"><use xlink:href="#n"/></mask><rect id="o" y="30.609" width="26.482" height="8.973" rx=".7"/><mask id="O" x="0" y="0" width="26.482" height="8.973"><use xlink:href="#o"/></mask><ellipse id="p" cx="13.589" cy="24.696" rx="3.136" ry="3.13"/><mask id="P" x="0" y="0" width="6.272" height="6.261"><use xlink:href="#p"/></mask><rect id="q" x="181.082" y="26.822" width="48.483" height="50.146" rx="1.749"/><mask id="Q" x="0" y="0" width="48.483" height="50.146"><use xlink:href="#q"/></mask><rect id="r" x="181.082" y="74.052" width="48.483" height="12.828" rx="1.749"/><mask id="R" x="0" y="0" width="48.483" height="12.828"><use xlink:href="#r"/></mask><rect id="s" x="181.082" y="83.965" width="48.483" height="12.828" rx="1.749"/><mask id="S" x="0" y="0" width="48.483" height="12.828"><use xlink:href="#s"/></mask><rect id="t" x="25.731" y=".844" width="43.94" height="105.068" rx="17.493"/><mask id="T" x="0" y="0" width="76.84" height="104.653"><use xlink:href="#t"/></mask><rect id="u" x="18.138" y="4.803" width="43.94" height="105.068" rx="17.493"/><mask id="U" x="0" y="0" width="68.333" height="106.313"><use xlink:href="#u"/></mask><rect id="v" x="7.01" y=".583" width="47.315" height="113.137" rx="17.493"/><mask id="V" x="0" y="0" width="47.315" height="113.137"><use xlink:href="#v"/></mask><ellipse id="w" cx="30.667" cy="13.12" rx="3.797" ry="3.79"/><mask id="W" x="0" y="0" width="7.594" height="7.58"><use xlink:href="#w"/></mask><rect id="x" x="15.772" y="23.324" width="29.791" height="17.493" rx="1.749"/><mask id="X" x="0" y="0" width="29.791" height="17.493"><use xlink:href="#x"/></mask><rect id="y" x="15.772" y="50.146" width="29.791" height="17.493" rx="1.749"/><mask id="Y" x="0" y="0" width="29.791" height="17.493"><use xlink:href="#y"/></mask><rect id="z" x="15.772" y="77.551" width="29.791" height="17.493" rx="1.749"/><mask id="Z" x="0" y="0" width="29.791" height="17.493"><use xlink:href="#z"/></mask></defs><g transform="translate(0 0)" fill="none"><g id="Group-2" transform="translate(69.512 149.271)" stroke="#516B35" stroke-width="4.665" fill="#F6F6F6" stroke-linecap="round" stroke-linejoin="round"><use mask="url(#A)" xlink:href="#a"/><use mask="url(#B)" xlink:href="#b"/></g><use id="Rectangle-57" stroke="#516B35" mask="url(#C)" stroke-width="4.665" stroke-linecap="round" stroke-linejoin="round" fill="#fff" xlink:href="#c"/><use stroke="#516B35" mask="url(#D)" stroke-width="4.665" stroke-linecap="round" stroke-linejoin="round" fill="#F6F6F6" xlink:href="#d"/><use stroke="#516B35" mask="url(#E)" stroke-width="4.665" stroke-linecap="round" stroke-linejoin="round" fill="#516B35" xlink:href="#e"/><use id="Rectangle-54" stroke="#516B35" mask="url(#F)" stroke-width="4.665" stroke-linecap="round" stroke-linejoin="round" fill="#F6F6F6" xlink:href="#f"/><use stroke="#516B35" mask="url(#G)" stroke-width="4.665" stroke-linecap="round" stroke-linejoin="round" fill="#9CCC65" xlink:href="#g"/><ellipse fill="#516B35" cx="18.627" cy="21.205" rx="1.977" ry="1.988"/><ellipse fill="#516B35" cx="25.746" cy="21.205" rx="1.977" ry="1.988"/><ellipse fill="#516B35" cx="32.864" cy="21.205" rx="1.977" ry="1.988"/><use stroke="#516B35" mask="url(#H)" stroke-width="4.665" stroke-linecap="round" stroke-linejoin="round" fill="#fff" xlink:href="#h"/><g><g stroke="#516B35" stroke-width="4.665" stroke-linejoin="round" transform="translate(57.245 52.478)"><use mask="url(#I)" fill="#fff" xlink:href="#i"/><use mask="url(#J)" fill="#9CCC65" xlink:href="#j"/></g><g><path d="M93.107 82.985s-.957-25.637 25.844-25.637c26.802 0 26.164 25.637 26.164 25.637" stroke="#526B35" stroke-width="2.332" stroke-linejoin="round"/><g stroke="#516B35" transform="translate(57.245 52.478) translate(34.464)"><path d="M3.484 4.4h47.222"/><use mask="url(#K)" fill="#fff" xlink:href="#k"/><use mask="url(#L)" fill="#fff" xlink:href="#l"/><use mask="url(#M)" fill="#9CCC65" xlink:href="#m"/></g><g transform="translate(106.344 62.913)" stroke="#516B35"><use mask="url(#N)" fill="#F6F6F6" xlink:href="#n"/><use mask="url(#O)" fill="#9CCC65" xlink:href="#o"/><path d="M13.473 1.39v24.677"/><use mask="url(#P)" fill="#fff" xlink:href="#p"/></g></g></g><use stroke="#516B35" mask="url(#Q)" stroke-width="4.665" stroke-linecap="round" stroke-linejoin="round" fill="#D6D7D9" xlink:href="#q"/><use id="Rectangle-98-Copy-5" stroke="#516B35" mask="url(#R)" stroke-width="4.665" stroke-linecap="round" stroke-linejoin="round" fill="#D6D7D9" xlink:href="#r"/><use stroke="#516B35" mask="url(#S)" stroke-width="4.665" stroke-linecap="round" stroke-linejoin="round" fill="#D6D7D9" xlink:href="#s"/><g transform="translate(141.653 85.714)" stroke="#516B35" stroke-width="4.665" stroke-linecap="round" stroke-linejoin="round"><use id="Rectangle-114" mask="url(#T)" fill="#E5E3E3" transform="rotate(-1 47.701 53.378)" xlink:href="#t"/><use id="Rectangle-114" mask="url(#U)" fill="#F0EEEE" transform="rotate(6 40.108 57.337)" xlink:href="#u"/><use mask="url(#V)" fill="#F6F6F6" xlink:href="#v"/><use mask="url(#W)" xlink:href="#w"/><use mask="url(#X)" fill="#9CCC65" xlink:href="#x"/><use mask="url(#Y)" fill="#A9DE6D" xlink:href="#y"/><use mask="url(#Z)" fill="#CAE9A6" xlink:href="#z"/></g></g></svg>