<svg width="243" height="200" viewBox="0 0 243 200" xmlns="http://www.w3.org/2000/svg" xmlns:xlink="http://www.w3.org/1999/xlink"><title>UX Designers</title><desc>Created with Sketch.</desc><defs><rect id="a" y="28.571" width="103.976" height="11.662" rx="1.749"/><mask id="s" x="0" y="0" width="103.976" height="11.662"><use xlink:href="#a"/></mask><path id="b" d="M45.207 0H58.77v30.904H45.206z"/><mask id="t" x="0" y="0" width="13.562" height="30.904"><use xlink:href="#b"/></mask><rect id="c" width="243" height="156.945" rx="1.749"/><mask id="u" x="0" y="0" width="243" height="156.945"><use xlink:href="#c"/></mask><rect id="d" y="123.367" width="243" height="33.724" rx="1.749"/><mask id="v" x="0" y="0" width="243" height="33.724"><use xlink:href="#d"/></mask><ellipse id="e" cx="121.5" cy="140.401" rx="4.136" ry="4.129"/><mask id="w" x="0" y="0" width="8.272" height="8.259"><use xlink:href="#e"/></mask><rect id="f" x="10.34" y="12.904" width="219.14" height="105.062" rx="1.224"/><mask id="x" x="0" y="0" width="219.14" height="105.062"><use xlink:href="#f"/></mask><rect id="g" x="10.396" y="12.971" width="219.14" height="15.901" rx="1.224"/><mask id="y" x="0" y="0" width="219.14" height="15.901"><use xlink:href="#g"/></mask><rect id="h" x="19.13" y="52.65" width="201.638" height="57.812" rx="1.224"/><mask id="z" x="0" y="0" width="201.638" height="57.812"><use xlink:href="#h"/></mask><rect id="i" width="58.22" height="99.546" rx="1.749"/><mask id="A" x="0" y="0" width="58.22" height="99.546"><use xlink:href="#i"/></mask><rect id="j" y="79.732" width="58.22" height="20.161" rx="1.749"/><mask id="B" x="0" y="0" width="58.22" height="20.161"><use xlink:href="#j"/></mask><rect id="k" width="58.22" height="15.147" rx="1.749"/><mask id="C" x="0" y="0" width="58.22" height="15.147"><use xlink:href="#k"/></mask><rect id="l" x="22.157" y="5.767" width="13.922" height="3.793" rx="5.831"/><mask id="D" x="0" y="0" width="13.922" height="3.793"><use xlink:href="#l"/></mask><rect id="m" x="8.057" y="33.598" width="41.766" height="42.02" rx="1.224"/><mask id="E" x="0" y="0" width="41.766" height="42.02"><use xlink:href="#m"/></mask><path d="M8.936 1.33c.32-.907.846-.895 1.162 0l8.936 25.264H0L8.936 1.33z" id="n"/><mask x="0" y="0" width="19.034" height="26.375"><use xlink:href="#n"/></mask><mask id="F" x="0" y="0" width="19.034" height="26.375"><use xlink:href="#n"/></mask><rect id="o" width="17.379" height="91.345" rx="1.749"/><mask id="H" x="0" y="0" width="17.379" height="91.345"><use xlink:href="#o"/></mask><rect id="p" x="8.689" width="10.345" height="91.345" rx="1.749"/><mask id="I" x="0" y="0" width="10.345" height="91.345"><use xlink:href="#p"/></mask><rect id="q" y="82.486" width="19.034" height="14.069" rx=".583"/><mask id="J" x="0" y="0" width="19.034" height="14.069"><use xlink:href="#q"/></mask><rect id="r" y="79.883" width="19.034" height="7.796" rx=".583"/><mask id="K" x="0" y="0" width="19.034" height="7.796"><use xlink:href="#r"/></mask></defs><g transform="translate(0 0)" fill="none"><g transform="translate(69.512 149.271)" stroke="#516B35" stroke-width="4.665" fill="#F6F6F6" stroke-linecap="round" stroke-linejoin="round"><use mask="url(#s)" xlink:href="#a"/><use mask="url(#t)" xlink:href="#b"/></g><use id="Rectangle-57" stroke="#516B35" mask="url(#u)" stroke-width="4.665" stroke-linecap="round" stroke-linejoin="round" fill="#fff" xlink:href="#c"/><use stroke="#516B35" mask="url(#v)" stroke-width="4.665" stroke-linecap="round" stroke-linejoin="round" fill="#F6F6F6" xlink:href="#d"/><use stroke="#516B35" mask="url(#w)" stroke-width="4.665" stroke-linecap="round" stroke-linejoin="round" fill="#516B35" xlink:href="#e"/><use id="Rectangle-54" stroke="#516B35" mask="url(#x)" stroke-width="4.665" stroke-linecap="round" stroke-linejoin="round" fill="#fff" xlink:href="#f"/><use stroke="#516B35" mask="url(#y)" stroke-width="4.665" stroke-linecap="round" stroke-linejoin="round" fill="#F6F6F6" xlink:href="#g"/><ellipse fill="#516B35" cx="18.627" cy="21.205" rx="1.977" ry="1.988"/><ellipse fill="#516B35" cx="25.746" cy="21.205" rx="1.977" ry="1.988"/><ellipse fill="#516B35" cx="32.864" cy="21.205" rx="1.977" ry="1.988"/><path d="M80.138 38.713h78.59" id="Path-132" stroke="#516B35" stroke-width="2.332" stroke-linecap="round"/><path d="M66.18 45.94h107.027" id="Path-132-Copy" stroke="#516B35" stroke-width="2.332" stroke-linecap="round"/><use id="Rectangle-56" stroke="#516B35" mask="url(#z)" stroke-width="4.665" stroke-linecap="round" stroke-linejoin="round" fill="#9CCC65" xlink:href="#h"/><g transform="translate(147.786 99.125)"><use id="Rectangle-61" stroke="#516B35" mask="url(#A)" stroke-width="4.665" stroke-linecap="round" stroke-linejoin="round" fill="#fff" xlink:href="#i"/><use id="Rectangle-61" stroke="#516B35" mask="url(#B)" stroke-width="4.665" stroke-linecap="round" stroke-linejoin="round" fill="#F6F6F6" xlink:href="#j"/><use stroke="#516B35" mask="url(#C)" stroke-width="4.665" stroke-linecap="round" stroke-linejoin="round" fill="#F6F6F6" xlink:href="#k"/><use stroke="#516B35" mask="url(#D)" stroke-width="4.665" stroke-linecap="round" stroke-linejoin="round" fill="#516B35" xlink:href="#l"/><path d="M29.53 93.49c1.747 0 3.164-1.41 3.164-3.15s-1.417-3.15-3.164-3.15c-1.748 0-3.164 1.41-3.164 3.15s1.416 3.15 3.164 3.15z" fill="#516B35"/><path d="M17.12 23.67h23.603" stroke="#516B35" stroke-width="2.332" stroke-linecap="round"/><path d="M13.093 28.686h31.912" stroke="#516B35" stroke-width="2.332" stroke-linecap="round"/><use stroke="#516B35" mask="url(#E)" stroke-width="4.665" stroke-linecap="round" stroke-linejoin="round" fill="#9CCC65" xlink:href="#m"/></g><g><g transform="translate(29.791 78.134)"><mask id="G"><use xlink:href="#n"/></mask><use mask="url(#F)" xlink:href="#n" stroke="#516B35" stroke-width="4.665" stroke-linecap="round" stroke-linejoin="round" fill="#fff"/><path id="Rectangle-45" fill="#516B35" mask="url(#G)" d="M2.07-.313h14.895v10.637H2.07z"/></g><g transform="translate(29.791 78.134) translate(0 24.957)" stroke="#516B35" stroke-width="4.665" stroke-linecap="round" stroke-linejoin="round"><g><use mask="url(#H)" fill="#fff" xlink:href="#o"/><use mask="url(#I)" fill="#F6F6F6" xlink:href="#p"/></g><use id="Rectangle-46" mask="url(#J)" fill="#9CCC65" xlink:href="#q"/><use mask="url(#K)" fill="#D6D7D9" xlink:href="#r"/></g></g></g></svg>