<svg width="243" height="199" viewBox="0 0 243 199" xmlns="http://www.w3.org/2000/svg" xmlns:xlink="http://www.w3.org/1999/xlink"><title>Group 20</title><desc>Created with Sketch.</desc><defs><rect id="a" width="117.701" height="152.199" rx="1.749"/><mask x="0" y="0" width="117.701" height="152.199"><use xlink:href="#a"/></mask><mask id="s" x="0" y="0" width="117.701" height="152.199"><use xlink:href="#a"/></mask><ellipse id="b" cx="21.155" cy="21.019" rx="21.155" ry="21.019"/><mask id="t" x="0" y="0" width="42.311" height="42.037"><use xlink:href="#b"/></mask><path d="M42.31 21.02C42.31 9.41 32.84 0 21.156 0v21.02H0c0 11.607 9.472 21.017 21.155 21.017 11.684 0 21.156-9.41 21.156-21.018z" id="c"/><mask id="u" x="0" y="0" width="42.311" height="42.037"><use xlink:href="#c"/></mask><rect id="d" x=".767" width="167.898" height="137.444" rx="1.224"/><mask id="v" x="0" y="0" width="167.898" height="137.444"><use xlink:href="#d"/></mask><rect id="e" x=".581" y=".187" width="167.898" height="20.802" rx="1.224"/><mask id="w" x="0" y="0" width="167.898" height="20.802"><use xlink:href="#e"/></mask><ellipse id="f" cx="14.187" cy="9.535" rx="9.586" ry="9.535"/><mask id="x" x="0" y="0" width="19.171" height="19.07"><use xlink:href="#f"/></mask><ellipse id="g" cx="14.187" cy="9.535" rx="9.586" ry="9.535"/><mask id="y" x="0" y="0" width="19.171" height="19.07"><use xlink:href="#g"/></mask><ellipse id="h" cx="14.187" cy="9.535" rx="9.586" ry="9.535"/><mask id="z" x="0" y="0" width="19.171" height="19.07"><use xlink:href="#h"/></mask><path d="M25.343 26.448c0-7.17-5.62-12.984-12.555-12.984-6.934 0-12.556 5.813-12.556 12.984h25.11z" id="i"/><mask id="A" x="0" y="0" width="25.111" height="12.983"><use xlink:href="#i"/></mask><ellipse id="j" cx="12.788" cy="8.175" rx="8.2" ry="8.175"/><mask id="B" x="0" y="0" width="16.4" height="16.35"><use xlink:href="#j"/></mask><path d="M25.403 26.51c0-7.187-5.634-13.014-12.585-13.014-6.95 0-12.585 5.827-12.585 13.015h25.17z" id="k"/><mask id="C" x="0" y="0" width="25.17" height="13.014"><use xlink:href="#k"/></mask><ellipse id="l" cx="12.818" cy="8.194" rx="8.219" ry="8.194"/><mask id="D" x="0" y="0" width="16.438" height="16.388"><use xlink:href="#l"/></mask><path d="M40.687 42.46c0-11.512-9.025-20.844-20.157-20.844S.373 30.948.373 42.46h40.314z" id="m"/><mask id="E" x="0" y="0" width="40.314" height="20.844"><use xlink:href="#m"/></mask><ellipse id="n" cx="20.53" cy="13.124" rx="13.164" ry="13.124"/><mask id="F" x="0" y="0" width="26.328" height="26.248"><use xlink:href="#n"/></mask><path d="M46.074 47.857h10c13.213 0 23.918-10.713 23.918-23.928C79.992 10.71 69.282 0 56.072 0H23.92C10.704 0 0 10.713 0 23.93s10.71 23.927 23.92 23.927h2.518v13.84c0 1.29.803 1.676 1.803.852l17.834-14.693z" id="o"/><mask id="G" x="0" y="0" width="79.992" height="62.819"><use xlink:href="#o"/></mask><path d="M35.33 36.657h7.604c10.13 0 18.332-8.206 18.332-18.33C61.266 8.205 53.06 0 42.934 0H18.428C8.298 0 .096 8.206.096 18.328c0 10.125 8.208 18.33 18.332 18.33h1.885V47.3c0 .966.604 1.25 1.35.635l13.666-11.278z" id="p"/><mask id="H" x="0" y="0" width="61.17" height="48.35"><use xlink:href="#p"/></mask><path d="M35.33 36.657h7.604c10.13 0 18.332-8.206 18.332-18.33C61.266 8.205 53.06 0 42.934 0H18.428C8.298 0 .096 8.206.096 18.328c0 10.125 8.208 18.33 18.332 18.33h1.885v10.05c0 1.292.803 1.677 1.806.85l13.21-10.9z" id="q"/><mask id="I" x="0" y="0" width="61.17" height="48.135"><use xlink:href="#q"/></mask><path d="M61.432 64.302l3.388 1.508c-.22.9.23 1.857 1.098 2.244l36.61 16.3c.982.437 2.133-.006 2.57-.988l2.847-6.394c.437-.983-.01-2.137-.986-2.57L70.35 58.1c-.974-.434-2.114-.002-2.56.962l-2.44-1.087c1.672-3.68 2.603-7.77 2.603-12.078 0-16.13-13.066-29.207-29.185-29.207-16.12 0-29.185 13.076-29.185 29.206S22.65 75.103 38.768 75.103c9.148 0 17.313-4.21 22.664-10.802zM38.944 68.23c12.14 0 21.983-9.85 21.983-22s-9.842-21.998-21.983-21.998c-12.14 0-21.983 9.85-21.983 22 0 12.148 9.843 21.997 21.984 21.997z" id="r"/><mask id="J" x="0" y="0" width="98.535" height="67.815"><use xlink:href="#r"/></mask></defs><g fill="none"><g><g><g transform="translate(124.596 .4)"><mask><use xlink:href="#a"/></mask><use mask="url(#s)" xlink:href="#a" id="Mask" stroke="#516B35" stroke-width="4.665" stroke-linejoin="round" fill="#fff"/></g><g stroke="#516B35"><path d="M135.076 50.964h47.132"/><path d="M135.076 64.38h47.132"/><path d="M135.076 77.794h47.132M135.172 92.24H230.8" id="Line"/><path d="M135.172 20.007H230.8"/><path d="M135.172 34.454H230.8"/><path d="M135.172 105.656H230.8M135.172 119.07H230.8M135.172 133.518H230.8"/><g transform="matrix(.017 1 -1 .017 112.253 71.927)"><use mask="url(#t)" fill="#9CCC65" xlink:href="#b"/><use mask="url(#u)" fill="#F6F6F6" xlink:href="#c"/></g></g></g><g transform="translate(0 23.54)"><use id="Rectangle-54" stroke="#516B35" mask="url(#v)" stroke-width="4.665" stroke-linecap="round" stroke-linejoin="round" fill="#fff" xlink:href="#d"/><use stroke="#516B35" mask="url(#w)" stroke-width="4.665" stroke-linecap="round" stroke-linejoin="round" fill="#F6F6F6" xlink:href="#e"/><ellipse fill="#516B35" cx="11.417" cy="10.959" rx="2.596" ry="2.6"/><ellipse fill="#516B35" cx="20.762" cy="10.959" rx="2.596" ry="2.6"/><ellipse fill="#516B35" cx="30.108" cy="10.959" rx="2.596" ry="2.6"/><g stroke="#516B35" stroke-width="2.332" stroke-linecap="round"><path d="M38.387 54.922h84.665M38.387 35.852h84.665" id="Path-132"/><path d="M26.34 45.006h115.362" id="Path-132-Copy"/></g><g stroke-linecap="round" stroke="#516B35"><g transform="translate(18.404 70.178) translate(104.292)"><path d="M3.944 26.698h20.052" id="Path-132"/><path d="M0 33.564h27.322" id="Path-132-Copy"/><use mask="url(#x)" fill="#9CCC65" xlink:href="#f"/></g><g transform="translate(18.404 70.178) translate(52.146)"><path d="M3.944 26.698h20.052" id="Path-132"/><path d="M0 33.564h27.322" id="Path-132-Copy"/><use mask="url(#y)" fill="#9CCC65" xlink:href="#g"/></g><g transform="translate(18.404 70.178)"><path d="M3.944 26.698h20.052"/><path d="M0 33.564h27.322"/><use mask="url(#z)" fill="#9CCC65" xlink:href="#h"/></g></g></g><g stroke-linecap="round" stroke="#516B35" stroke-width="4.665" stroke-linejoin="round"><g id="person1" transform="translate(126.143 150.038)" fill="#F6F6F6"><use id="Oval-27-Copy" mask="url(#A)" xlink:href="#i"/><use id="Oval-27" mask="url(#B)" xlink:href="#j"/></g><g id="person1" fill="#F6F6F6" transform="translate(73.519 150.038)"><use id="Oval-27-Copy" mask="url(#C)" xlink:href="#k"/><use id="Oval-27" mask="url(#D)" xlink:href="#l"/></g><g transform="translate(91.398 152.679)" fill="#fff"><use mask="url(#E)" xlink:href="#m"/><use mask="url(#F)" xlink:href="#n"/></g></g><g stroke-linecap="round" stroke="#516B35"><g transform="translate(88.997 86.678)"><use mask="url(#G)" fill="#F6F6F6" xlink:href="#o"/><path d="M14.236 21.057h25.082"/><path d="M14.236 31.842h32.54"/></g><g transform="matrix(-1 0 0 1 176.447 75.219)"><use mask="url(#H)" fill="#fff" xlink:href="#p"/><use mask="url(#I)" fill="#fff" xlink:href="#q"/><path d="M10.846 14.795H50.03"/><path d="M10.846 24.232h25.92"/></g></g></g><g transform="translate(90.541 98.942)"><path d="M25.137 54.694C16.407 45.32 16.91 30.64 26.26 21.9c9.348-8.74 24.003-8.227 32.733 1.145 8.73 9.373 8.227 24.056-1.122 32.795-9.348 8.74-24.003 8.227-32.733-1.146z" id="Mask" fill="#E4F5F4" opacity=".59"/><use stroke="#516B35" mask="url(#J)" stroke-width="4.665" fill="#9CCC65" transform="rotate(-337 58.85 50.6)" xlink:href="#r"/></g></g></svg>