<svg width="124" height="154" viewBox="0 0 124 154" xmlns="http://www.w3.org/2000/svg"><title>UX Hires Logo 2016_fb copy 6</title><desc>Created with Sketch.</desc><g fill="none"><path d="M28.553 66.22V46.34c0-.72.622-1.336 1.347-1.336s1.346.617 1.346 1.336v19.626c0 8.476 4.61 13.357 12.272 13.357 7.354 0 12.066-4.417 12.066-13.1V46.34c0-.72.62-1.336 1.346-1.336.725 0 1.347.617 1.347 1.336v19.575c0 10.326-6.06 15.824-14.862 15.824-8.7 0-14.862-5.446-14.862-15.516" fill="#fff"/><path d="M66.316 79.27l12.946-16.44-12.324-15.567c-.26-.36-.466-.668-.466-1.027 0-.617.62-1.234 1.294-1.234.517 0 .828.258 1.14.668l12.013 15.362 11.857-15.208c.362-.462.724-.822 1.294-.822.674 0 1.192.566 1.192 1.234 0 .308-.156.616-.362.873L82.524 62.777l12.79 16.338c.31.36.466.667.466 1.028 0 .616-.62 1.233-1.294 1.233-.518 0-.83-.257-1.14-.67l-12.53-16.13-12.377 15.977c-.363.462-.726.823-1.296.823-.672 0-1.19-.565-1.19-1.233 0-.308.156-.617.362-.874" fill="#fff"/><path fill="#fff" d="M11.527 142.326h2.406v4.293h4.436v-4.294h2.405v10.85H18.37v-4.356h-4.437v4.356h-2.406v-10.85"/><path fill="#fff" d="M38.183 142.326h2.406v10.85h-2.407z"/><path d="M62.843 147.595c1.17 0 1.843-.618 1.843-1.535v-.03c0-1.023-.718-1.55-1.89-1.55h-2.39v3.115h2.437zM56 140.325h5c1.39 0 2.467.388 3.186 1.102.61.604.938 1.457.938 2.48v.03c0 1.75-.954 2.852-2.344 3.364l2.67 3.876h-2.81l-2.344-3.473h-1.89v3.473H57v-10.85z" fill="#fff"/><path fill="#fff" d="M83.97 142.326h8.248v2.123H86.36v2.2h5.155v2.124H86.36v2.278h5.936v2.124H83.97v-10.85"/><path d="M108.362 151.595l1.42-1.69c.985.806 2.016 1.318 3.266 1.318.985 0 1.578-.388 1.578-1.023v-.03c0-.605-.375-.916-2.203-1.38-2.203-.558-3.624-1.163-3.624-3.317v-.03c0-1.97 1.593-3.272 3.826-3.272 1.593 0 2.952.496 4.062 1.38l-1.25 1.798c-.968-.666-1.92-1.068-2.843-1.068-.92 0-1.406.417-1.406.944v.03c0 .714.467.947 2.358 1.427 2.218.575 3.468 1.365 3.468 3.256v.032c0 2.153-1.656 3.363-4.015 3.363-1.655 0-3.326-.573-4.638-1.735" fill="#fff"/><path d="M122.64 61.58c0 33.176-27.106 60.07-60.542 60.07-33.438 0-60.544-26.894-60.544-60.07 0-33.175 27.106-60.068 60.544-60.068 33.436 0 60.543 26.893 60.543 60.07z" stroke="#fff" stroke-width="1.899"/><path d="M114.42 61.58c0 28.672-23.425 51.915-52.322 51.915-28.898 0-52.324-23.243-52.324-51.914 0-28.67 23.426-51.913 52.324-51.913 28.897 0 52.323 23.242 52.323 51.914z" stroke="#fff" stroke-width="1.899"/></g></svg>