<svg width="120" height="120" viewBox="0 0 120 120" xmlns="http://www.w3.org/2000/svg" xmlns:xlink="http://www.w3.org/1999/xlink"><title>Group</title><desc>Created with Sketch.</desc><defs><path d="M50 100c27.614 0 50-22.386 50-50S77.614 0 50 0 0 22.386 0 50s22.386 50 50 50z" id="b"/><filter x="-50%" y="-50%" width="200%" height="200%" filterUnits="objectBoundingBox" id="a"><feOffset dy="2" in="SourceAlpha" result="shadowOffsetOuter1"/><feGaussianBlur stdDeviation="5" in="shadowOffsetOuter1" result="shadowBlurOuter1"/><feColorMatrix values="0 0 0 0 0 0 0 0 0 0 0 0 0 0 0 0 0 0 0.5 0" in="shadowBlurOuter1"/></filter></defs><g fill="none"><g transform="translate(-786 -710) translate(796 718)"><use fill="#000" filter="url(#a)" xlink:href="#b"/><use fill="#fff" xlink:href="#b"/></g><path d="M75 74.632c0 .792-.646 1.368-1.363 1.368H45.363c-.79 0-1.363-.648-1.363-1.368 0-.792.646-1.368 1.363-1.368h28.202c.79 0 1.435.576 1.435 1.368zM39.5 24c-.79 0-1.363.648-1.363 1.368v22.464l-5.454-5.472c-.574-.576-1.435-.576-1.938 0-.574.576-.574 1.44 0 1.944l7.75 7.776c.287.288.646.432 1.005.432.36 0 .718-.144 1.005-.432l7.75-7.776c.574-.576.574-1.44 0-1.944-.574-.576-1.436-.576-1.938 0l-5.454 5.472V33.368c0-.792-.574-1.368-1.363-1.368z" fill="#42423F"/></g></svg>