<svg width="767" height="527" viewBox="0 0 767 527" xmlns="http://www.w3.org/2000/svg"><title>Page 1</title><desc>Created with Sketch.</desc><g stroke-width="1.25" stroke="#A8E0D7" fill="none"><path d="M240.108 144.226l-95.63-143.19 382.517 143.19z"/><path d="M526.995 144.226l95.63-143.19H335.736l-95.63 143.19"/><path d="M622.624 1.035l143.443 143.19h-95.63z"/><path d="M526.995 144.226l95.63-143.19-382.517 143.19z"/><path d="M240.108 144.226l-95.63-143.19h286.888l95.63 143.19"/><path d="M526.995 144.226h143.443L383.552 526.07z"/><path d="M144.48 1.035L1.035 144.225h95.63z"/><path d="M383.552 526.07L240.108 144.225H96.665z"/><path d="M1.036 144.226L383.552 526.07l382.515-381.844z"/><path d="M383.552 526.07L1.036 144.225 144.48 1.036h478.144l143.443 143.19z"/></g></svg>